# xmcd
#
# Track frame offsets:
#	150
#	13147
#	29765
#	62773
#	81748
#	98635
#	115890
#	132804
#	148916
#	171460
#	186692
#
# Disc length: 2815 seconds
#
# Revision: 1
# Processed by: cddbd v1.5.2PL0 Copyright (c) Steve Scherf et al.
# Submitted via: audiograbber 1.83.01
#
DISCID=ac0afd0b
DTITLE=Hollis Brown - 3 Shots
DYEAR=2015
DGENRE=Blues
TTITLE0=Cathedral
TTITLE1=3 Shots
TTITLE2=John Wayne
TTITLE3=Rain Dance
TTITLE4=Sandy
TTITLE5=Sweet Tooth
TTITLE6=Death Of An Actress
TTITLE7=Highway 1
TTITLE8=Wait For Me Virginia
TTITLE9=Mi Amor
TTITLE10=The Ballad Of Mr. Rose
EXTD=
EXTT0=
EXTT1=
EXTT2=
EXTT3=
EXTT4=
EXTT5=
EXTT6=
EXTT7=
EXTT8=
EXTT9=
EXTT10=
PLAYORDER=
